<svg width="12" height="11" viewBox="0 0 12 11" fill="none" xmlns="http://www.w3.org/2000/svg">
<path d="M8.7002 0.5C10.2729 0.500101 11.4999 1.72185 11.5 3.29688C11.5 4.26232 11.0689 5.18086 10.207 6.23438C9.55654 7.02946 8.6907 7.86689 7.64258 8.83008L6.53418 9.83789L6.5332 9.83887L6 10.3232L5.4668 9.83887L5.46582 9.83789L4.35742 8.83008C3.3093 7.86689 2.44346 7.02946 1.79297 6.23438C0.931071 5.18086 0.5 4.26232 0.5 3.29688C0.500066 1.72185 1.72706 0.500101 3.2998 0.5C4.1928 0.5 5.05863 0.917548 5.62109 1.57227L6 2.01465L6.37891 1.57227C6.94137 0.917548 7.8072 0.5 8.7002 0.5Z" stroke="black"/>
</svg>
