<svg width="20" height="20" viewBox="0 0 20 20" fill="none" xmlns="http://www.w3.org/2000/svg">
<path d="M10 15.8334C12.7583 15.8334 15 13.5917 15 10.8334V6.66675C15 3.90841 12.7583 1.66675 10 1.66675C7.24167 1.66675 5 3.90841 5 6.66675V10.8334C5 13.5917 7.24167 15.8334 10 15.8334Z" stroke="#999999" stroke-width="1.5" stroke-linecap="round" stroke-linejoin="round"/>
<path d="M2.5 9.16675V10.8334C2.5 14.9751 5.85833 18.3334 10 18.3334C14.1417 18.3334 17.5 14.9751 17.5 10.8334V9.16675" stroke="#999999" stroke-width="1.5" stroke-linecap="round" stroke-linejoin="round"/>
<path d="M7.5918 6.2334C9.07513 5.69173 10.6918 5.69173 12.1751 6.2334" stroke="#999999" stroke-width="1.5" stroke-linecap="round" stroke-linejoin="round"/>
<path d="M8.3584 8.73335C9.3584 8.45835 10.4167 8.45835 11.4167 8.73335" stroke="#999999" stroke-width="1.5" stroke-linecap="round" stroke-linejoin="round"/>
</svg>
