<svg width="26" height="37" viewBox="0 0 26 37" fill="none" xmlns="http://www.w3.org/2000/svg">
<path d="M12.3586 23.1361V32.2252C12.3586 32.5737 12.2085 32.9078 11.9412 33.1541C11.6741 33.4005 11.3116 33.5389 10.9336 33.5389C10.5558 33.5389 10.1933 33.4005 9.92606 33.1541C9.65878 32.9078 9.50865 32.5737 9.50865 32.2252V23.1486C9.90547 23.4158 10.3811 23.5649 10.8723 23.5761C11.4076 23.5901 11.9322 23.4349 12.3586 23.1361ZM24.495 20.5086C24.1334 20.5086 23.7865 20.6411 23.5308 20.8768C23.2751 21.1126 23.1314 21.4324 23.1314 21.7658V23.3498C23.1314 23.6982 23.2815 24.0324 23.5488 24.2787C23.8159 24.5251 24.1784 24.6635 24.5564 24.6635C24.9344 24.6635 25.2968 24.5251 25.564 24.2787C25.8312 24.0324 25.9814 23.6982 25.9814 23.3498V21.8286C25.992 21.6484 25.9604 21.4681 25.8886 21.3001C25.8169 21.1322 25.7069 20.9803 25.5657 20.8551C25.4247 20.7299 25.2561 20.6341 25.0714 20.5742C24.8866 20.5145 24.69 20.4922 24.495 20.5086ZM6.41319 26.5806C5.92251 26.567 5.44751 26.4182 5.04956 26.1532V35.2675C5.04956 35.6176 5.2004 35.9534 5.46893 36.2009C5.73744 36.4484 6.10163 36.5875 6.48137 36.5875C6.86112 36.5875 7.22531 36.4484 7.49382 36.2009C7.76235 35.9534 7.91319 35.6176 7.91319 35.2675V26.2161C7.4679 26.4814 6.9425 26.6092 6.41319 26.5806ZM20.0496 17.7806C19.8648 17.7721 19.6801 17.7984 19.5067 17.8577C19.3334 17.917 19.1749 18.0083 19.0409 18.1258C18.907 18.2435 18.8005 18.3849 18.7276 18.5417C18.655 18.6985 18.6175 18.8673 18.6177 19.0378V26.0401C18.6177 26.3902 18.7686 26.726 19.0371 26.9735C19.3057 27.221 19.6698 27.3601 20.0496 27.3601C20.4293 27.3601 20.7936 27.221 21.0621 26.9735C21.3306 26.726 21.4814 26.3902 21.4814 26.0401V19.1258C21.4923 18.9444 21.4604 18.763 21.3878 18.594C21.3153 18.425 21.204 18.2725 21.0614 18.1471C20.9187 18.0216 20.7484 17.9261 20.562 17.8672C20.3756 17.8083 20.1775 17.7873 19.9814 17.8058L20.0496 17.7806ZM15.5223 20.4709C15.0086 20.4676 14.5087 20.3184 14.0905 20.0435V29.1829C14.0905 29.533 14.2413 29.8688 14.5098 30.1163C14.7784 30.3639 15.1425 30.5029 15.5223 30.5029C15.9021 30.5029 16.2661 30.3639 16.5348 30.1163C16.8033 29.8688 16.9541 29.533 16.9541 29.1829V20.0561C16.5216 20.3531 15.9934 20.508 15.4541 20.4961L15.5223 20.4709ZM3.31774 27.4732V1.94063C3.31415 1.6294 3.17752 1.33206 2.93752 1.11315C2.69752 0.894244 2.37353 0.771472 2.03592 0.771484H1.73592C1.39831 0.771472 1.07432 0.894244 0.834324 1.11315C0.594324 1.33206 0.457688 1.6294 0.454102 1.94063V27.4732C0.454102 27.7866 0.589156 28.0872 0.829538 28.3088C1.06992 28.5305 1.39597 28.6549 1.73592 28.6549H2.03592C2.37589 28.6549 2.70192 28.5305 2.9423 28.3088C3.1827 28.0872 3.31774 27.7866 3.31774 27.4732ZM6.56319 25.6126H6.26319C5.92324 25.6126 5.59719 25.4882 5.35681 25.2665C5.11643 25.0449 4.98137 24.7443 4.98137 24.4309V4.98291C4.98497 4.67169 5.1216 4.37433 5.3616 4.15544C5.6016 3.93653 5.92558 3.81376 6.26319 3.81377H6.56319C6.9008 3.81376 7.22479 3.93653 7.46479 4.15544C7.70479 4.37433 7.84142 4.67169 7.84501 4.98291V24.4561C7.84501 24.7695 7.70996 25.07 7.46957 25.2917C7.22919 25.5133 6.90315 25.6378 6.56319 25.6378V25.6126ZM11.0768 22.6206H10.7632C10.4269 22.6206 10.1043 22.4974 9.86647 22.2782C9.62865 22.0589 9.49501 21.7616 9.49501 21.4515V8.00006C9.49324 7.84546 9.52474 7.69208 9.5876 7.54878C9.65047 7.40548 9.7436 7.27511 9.86156 7.16521C9.97951 7.05531 10.12 6.96807 10.2747 6.90853C10.4295 6.84899 10.5955 6.81833 10.7632 6.81834H11.0768C11.4145 6.82166 11.737 6.94761 11.9744 7.16887C12.2119 7.39013 12.345 7.68881 12.345 8.00006V21.4515C12.345 21.7616 12.2114 22.0589 11.9736 22.2782C11.7357 22.4974 11.4132 22.6206 11.0768 22.6206ZM15.5905 19.5406H15.3041C14.9665 19.5406 14.6425 19.4179 14.4025 19.1989C14.1625 18.9801 14.0258 18.6828 14.0223 18.3715V11.1303C14.0111 10.9689 14.0359 10.8071 14.0954 10.6549C14.1547 10.5028 14.2474 10.3634 14.3676 10.2456C14.4877 10.1276 14.6328 10.0339 14.794 9.96975C14.955 9.90576 15.1286 9.87282 15.3041 9.8732H15.6041C15.9441 9.8732 16.2701 9.99765 16.5105 10.2193C16.7509 10.4409 16.8859 10.7415 16.8859 11.0549V18.3463C16.8877 18.5026 16.8559 18.6576 16.7922 18.8024C16.7287 18.9473 16.6346 19.079 16.5153 19.1901C16.3961 19.3011 16.2543 19.3893 16.0977 19.4495C15.9413 19.5097 15.7736 19.5406 15.6041 19.5406H15.5905ZM20.1177 16.8378H19.8177C19.4778 16.8378 19.1517 16.7133 18.9113 16.4917C18.6709 16.27 18.5359 15.9695 18.5359 15.6561V13.7829C18.5395 13.4716 18.6761 13.1743 18.9161 12.9555C19.1561 12.7365 19.4801 12.6138 19.8177 12.6138H20.1177C20.4554 12.6138 20.7794 12.7365 21.0194 12.9555C21.2594 13.1743 21.396 13.4716 21.3996 13.7829V15.6561C21.3996 15.9673 21.2665 16.266 21.0289 16.4873C20.7915 16.7085 20.469 16.8345 20.1314 16.8378H20.1177Z" fill="url(#paint0_linear_48_2677)"/>
<defs>
<linearGradient id="paint0_linear_48_2677" x1="0.454101" y1="22.1429" x2="17.4996" y2="22.1429" gradientUnits="userSpaceOnUse">
<stop stop-color="#39CABD"/>
<stop offset="1" stop-color="#4AB5CA"/>
</linearGradient>
</defs>
</svg>
